<mxfile host="app.diagrams.net" modified="2023-07-10T10:52:11.598Z" agent="Mozilla/5.0 (Macintosh; Intel Mac OS X 10_15_7) AppleWebKit/537.36 (KHTML, like Gecko) Chrome/114.0.0.0 Safari/537.36" etag="LI6ERq5bPN5skgY6sH4c" version="21.6.1" type="github">
  <diagram name="第 1 页" id="FzLDRYDu18zoJQzNIDdu">
    <mxGraphModel dx="714" dy="501" grid="1" gridSize="10" guides="1" tooltips="1" connect="1" arrows="1" fold="1" page="1" pageScale="1" pageWidth="827" pageHeight="1169" math="0" shadow="0">
      <root>
        <mxCell id="0" />
        <mxCell id="1" parent="0" />
        <mxCell id="NcZOODkemZQoeQkHEvdD-3" value="" style="rounded=0;whiteSpace=wrap;html=1;dashed=1;" vertex="1" parent="1">
          <mxGeometry x="105" y="100" width="550" height="390" as="geometry" />
        </mxCell>
        <mxCell id="NcZOODkemZQoeQkHEvdD-1" value="bind-agent" style="rounded=0;whiteSpace=wrap;html=1;" vertex="1" parent="1">
          <mxGeometry x="550" y="130" width="80" height="140" as="geometry" />
        </mxCell>
        <mxCell id="NcZOODkemZQoeQkHEvdD-2" value="Service" style="rounded=0;whiteSpace=wrap;html=1;" vertex="1" parent="1">
          <mxGeometry x="130" y="210" width="400" height="60" as="geometry" />
        </mxCell>
        <mxCell id="NcZOODkemZQoeQkHEvdD-4" value="DNS-WuJi" style="text;html=1;strokeColor=none;fillColor=none;align=center;verticalAlign=middle;whiteSpace=wrap;rounded=0;" vertex="1" parent="1">
          <mxGeometry x="350" y="60" width="60" height="30" as="geometry" />
        </mxCell>
        <mxCell id="NcZOODkemZQoeQkHEvdD-6" value="" style="rounded=0;whiteSpace=wrap;html=1;" vertex="1" parent="1">
          <mxGeometry x="130" y="370" width="500" height="100" as="geometry" />
        </mxCell>
        <mxCell id="NcZOODkemZQoeQkHEvdD-7" value="Mysql" style="rounded=0;whiteSpace=wrap;html=1;" vertex="1" parent="1">
          <mxGeometry x="150" y="390" width="120" height="60" as="geometry" />
        </mxCell>
        <mxCell id="NcZOODkemZQoeQkHEvdD-8" value="Redis" style="rounded=0;whiteSpace=wrap;html=1;" vertex="1" parent="1">
          <mxGeometry x="290" y="390" width="120" height="60" as="geometry" />
        </mxCell>
        <mxCell id="NcZOODkemZQoeQkHEvdD-9" value="MemCache" style="rounded=0;whiteSpace=wrap;html=1;" vertex="1" parent="1">
          <mxGeometry x="430" y="390" width="120" height="60" as="geometry" />
        </mxCell>
        <mxCell id="NcZOODkemZQoeQkHEvdD-10" value="DB" style="text;html=1;strokeColor=none;fillColor=none;align=center;verticalAlign=middle;whiteSpace=wrap;rounded=0;" vertex="1" parent="1">
          <mxGeometry x="350" y="350" width="60" height="30" as="geometry" />
        </mxCell>
        <mxCell id="NcZOODkemZQoeQkHEvdD-11" value="Dao" style="rounded=0;whiteSpace=wrap;html=1;" vertex="1" parent="1">
          <mxGeometry x="130" y="290" width="500" height="60" as="geometry" />
        </mxCell>
        <mxCell id="NcZOODkemZQoeQkHEvdD-12" value="API" style="rounded=0;whiteSpace=wrap;html=1;" vertex="1" parent="1">
          <mxGeometry x="130" y="130" width="400" height="60" as="geometry" />
        </mxCell>
      </root>
    </mxGraphModel>
  </diagram>
</mxfile>
